<svg width="15" height="16" viewBox="0 0 15 16" fill="none" xmlns="http://www.w3.org/2000/svg">
<path fill-rule="evenodd" clip-rule="evenodd" d="M8.60097 1.75012C8.60134 1.98984 8.52339 2.22312 8.37898 2.41446C8.23457 2.60581 8.0316 2.74474 7.80097 2.81012C8.93979 2.88646 10.0071 3.39271 10.7867 4.22635C11.5663 5.05999 12 6.15873 12 7.30012V10.7501C12 11.5561 12.033 12.2071 12.724 12.5531C12.8246 12.6036 12.9053 12.6865 12.953 12.7885C13.0006 12.8905 13.0124 13.0056 12.9865 13.1152C12.9606 13.2248 12.8985 13.3224 12.8102 13.3922C12.7219 13.4621 12.6126 13.5001 12.5 13.5001H8.16097C8.31329 13.6345 8.42109 13.812 8.47002 14.0092C8.51895 14.2063 8.50669 14.4137 8.43487 14.6037C8.36305 14.7936 8.23507 14.9573 8.06798 15.0727C7.90088 15.1882 7.70258 15.2501 7.49947 15.2501C7.29635 15.2501 7.09805 15.1882 6.93096 15.0727C6.76386 14.9573 6.63589 14.7936 6.56407 14.6037C6.49225 14.4137 6.47999 14.2063 6.52892 14.0092C6.57784 13.812 6.68564 13.6345 6.83797 13.5001H2.49997C2.38738 13.5001 2.27808 13.4621 2.18978 13.3922C2.10148 13.3224 2.03934 13.2248 2.01343 13.1152C1.98751 13.0056 1.99933 12.8905 2.04698 12.7885C2.09463 12.6865 2.17531 12.6036 2.27597 12.5531C2.96697 12.2071 2.99997 11.5561 2.99997 10.7501V7.30012C2.99996 6.15857 3.43381 5.05969 4.21363 4.22602C4.99345 3.39236 6.06096 2.88622 7.19997 2.81012C7.00326 2.75415 6.82606 2.64447 6.68824 2.49337C6.55043 2.34227 6.45747 2.15574 6.41979 1.95473C6.38212 1.75372 6.40123 1.54619 6.47497 1.35544C6.54872 1.1647 6.67418 0.998281 6.83727 0.874888C7.00036 0.751495 7.19461 0.67601 7.39823 0.656909C7.60184 0.637808 7.80675 0.675847 7.98994 0.766755C8.17313 0.857663 8.32736 0.997841 8.43529 1.17155C8.54323 1.34525 8.6006 1.54561 8.60097 1.75012ZM7.49997 3.80012C6.57171 3.80012 5.68147 4.16887 5.02509 4.82524C4.36872 5.48162 3.99997 6.37186 3.99997 7.30012V10.8001C3.99997 11.2461 4.00097 11.9081 3.69997 12.5001H11.3C10.999 11.9081 11 11.2461 11 10.8001V7.30012C11 6.37186 10.6312 5.48162 9.97484 4.82524C9.31846 4.16887 8.42822 3.80012 7.49997 3.80012Z" fill="black"/>
</svg>
