<svg width="36" height="36" viewBox="0 0 36 36" fill="none" xmlns="http://www.w3.org/2000/svg">
<path d="M29 11.0599C29 17.4989 24 18.4989 24 24.4999C24 27.5979 20.877 27.8589 18.5 27.8589C16.447 27.8589 11.914 27.0799 11.914 24.4979C11.914 18.4999 7 17.4999 7 11.0599C7 5.02889 12.285 0.139893 18.083 0.139893C23.883 0.139893 29 5.02889 29 11.0599Z" fill="#FFD983"/>
<path d="M22.167 32.4999C22.167 33.3279 19.933 34.9999 18 34.9999C16.067 34.9999 13.833 33.3279 13.833 32.4999C13.833 31.6719 16.066 31.9999 18 31.9999C19.933 31.9999 22.167 31.6719 22.167 32.4999Z" fill="#CCD6DD"/>
<path d="M22.7071 10.293C22.6143 10.2 22.5041 10.1263 22.3828 10.076C22.2615 10.0257 22.1314 9.99976 22.0001 9.99976C21.8688 9.99976 21.7387 10.0257 21.6174 10.076C21.4961 10.1263 21.3859 10.2 21.2931 10.293L18.0001 13.586L14.7071 10.293C14.6142 10.2001 14.504 10.1265 14.3827 10.0762C14.2614 10.026 14.1314 10.0001 14.0001 10.0001C13.8688 10.0001 13.7388 10.026 13.6175 10.0762C13.4962 10.1265 13.3859 10.2001 13.2931 10.293C13.2002 10.3858 13.1266 10.496 13.0764 10.6173C13.0261 10.7386 13.0002 10.8687 13.0002 11C13.0002 11.1313 13.0261 11.2613 13.0764 11.3826C13.1266 11.5039 13.2002 11.6141 13.2931 11.707L17.0001 15.414V26C17.0001 26.2652 17.1054 26.5195 17.293 26.7071C17.4805 26.8946 17.7349 27 18.0001 27C18.2653 27 18.5197 26.8946 18.7072 26.7071C18.8947 26.5195 19.0001 26.2652 19.0001 26V15.414L22.7071 11.707C22.8 11.6142 22.8738 11.504 22.9241 11.3827C22.9744 11.2613 23.0003 11.1313 23.0003 11C23.0003 10.8686 22.9744 10.7386 22.9241 10.6173C22.8738 10.4959 22.8 10.3857 22.7071 10.293Z" fill="#FFCC4D"/>
<path d="M24 31C24 31.5304 23.7893 32.0391 23.4142 32.4142C23.0391 32.7893 22.5304 33 22 33H14C13.4696 33 12.9609 32.7893 12.5858 32.4142C12.2107 32.0391 12 31.5304 12 31V25H24V31Z" fill="#99AAB5"/>
<path d="M11.999 32C11.7486 31.9991 11.5076 31.9042 11.3238 31.7342C11.1399 31.5642 11.0265 31.3314 11.006 31.0818C10.9856 30.8322 11.0595 30.584 11.2131 30.3863C11.3668 30.1886 11.5891 30.0557 11.836 30.014L23.836 28.014C23.9655 27.9917 24.0983 27.9953 24.2264 28.0247C24.3546 28.054 24.4756 28.1085 24.5826 28.1849C24.6895 28.2614 24.7803 28.3583 24.8495 28.4701C24.9187 28.5818 24.9651 28.7062 24.986 28.836C25.0076 28.9655 25.0035 29.098 24.9738 29.2259C24.9442 29.3538 24.8897 29.4746 24.8133 29.5814C24.737 29.6882 24.6404 29.7789 24.5289 29.8483C24.4175 29.9177 24.2935 29.9645 24.164 29.986L12.164 31.986C12.1095 31.9956 12.0543 32.0003 11.999 32ZM11.999 28C11.7486 27.9991 11.5076 27.9042 11.3238 27.7342C11.1399 27.5642 11.0265 27.3314 11.006 27.0818C10.9856 26.8322 11.0595 26.584 11.2131 26.3863C11.3668 26.1886 11.5891 26.0557 11.836 26.014L23.836 24.014C23.9655 23.9918 24.0982 23.9956 24.2263 24.025C24.3544 24.0544 24.4754 24.1089 24.5823 24.1853C24.6893 24.2617 24.78 24.3586 24.8493 24.4703C24.9185 24.5819 24.965 24.7063 24.986 24.836C25.0076 24.9655 25.0035 25.098 24.9738 25.2259C24.9442 25.3538 24.8897 25.4746 24.8133 25.5814C24.737 25.6882 24.6404 25.7789 24.5289 25.8483C24.4175 25.9177 24.2935 25.9645 24.164 25.986L12.164 27.986C12.1095 27.9956 12.0543 28.0003 11.999 28Z" fill="#CCD6DD"/>
</svg>
