<svg width="15" height="16" viewBox="0 0 15 16" fill="none" xmlns="http://www.w3.org/2000/svg">
<path fill-rule="evenodd" clip-rule="evenodd" d="M8.4451 1.10902C8.34758 0.94533 8.20921 0.809781 8.04356 0.715647C7.8779 0.621512 7.69063 0.572021 7.5001 0.572021C7.30957 0.572021 7.1223 0.621512 6.95664 0.715647C6.79098 0.809781 6.65262 0.94533 6.5551 1.10902L0.1611 11.837C0.0616193 12.004 0.00815901 12.1944 0.00616161 12.3887C0.00416422 12.5831 0.0537011 12.7745 0.149729 12.9435C0.245758 13.1125 0.384848 13.253 0.552842 13.3508C0.720835 13.4485 0.911732 13.5 1.1061 13.5H13.8941C14.0885 13.5 14.2794 13.4485 14.4474 13.3508C14.6154 13.253 14.7544 13.1125 14.8505 12.9435C14.9465 12.7745 14.996 12.5831 14.994 12.3887C14.992 12.1944 14.9386 12.004 14.8391 11.837L8.4451 1.10902ZM7.4151 1.62102C7.42407 1.60655 7.43658 1.5946 7.45146 1.58632C7.46633 1.57804 7.48308 1.57369 7.5001 1.57369C7.51712 1.57369 7.53387 1.57804 7.54874 1.58632C7.56362 1.5946 7.57613 1.60655 7.5851 1.62102L13.9801 12.349C13.9891 12.3642 13.9939 12.3815 13.9941 12.3991C13.9942 12.4168 13.9897 12.4342 13.981 12.4495C13.9722 12.4648 13.9596 12.4776 13.9443 12.4865C13.9291 12.4953 13.9118 12.5 13.8941 12.5H1.1061C1.08845 12.5 1.07111 12.4953 1.05586 12.4865C1.0406 12.4776 1.02796 12.4648 1.01922 12.4495C1.01049 12.4342 1.00597 12.4168 1.00612 12.3991C1.00628 12.3815 1.0111 12.3642 1.0201 12.349L7.4141 1.62002L7.4151 1.62102ZM6.8271 4.98602C6.82211 4.89455 6.83582 4.80303 6.86739 4.71704C6.89896 4.63105 6.94772 4.55239 7.01071 4.48588C7.07369 4.41937 7.14957 4.36639 7.23371 4.33019C7.31786 4.29399 7.4085 4.27531 7.5001 4.27531C7.5917 4.27531 7.68234 4.29399 7.76649 4.33019C7.85063 4.36639 7.92651 4.41937 7.98949 4.48588C8.05248 4.55239 8.10124 4.63105 8.13281 4.71704C8.16438 4.80303 8.17809 4.89455 8.1731 4.98602L8.0201 8.98702C8.0119 9.11909 7.95365 9.24308 7.85722 9.3337C7.76079 9.42433 7.63343 9.47478 7.5011 9.47478C7.36877 9.47478 7.24141 9.42433 7.14498 9.3337C7.04855 9.24308 6.9903 9.11909 6.9821 8.98702L6.8281 4.98702L6.8271 4.98602ZM8.2501 10.976C8.2501 11.1749 8.17108 11.3657 8.03043 11.5063C7.88978 11.647 7.69901 11.726 7.5001 11.726C7.30119 11.726 7.11042 11.647 6.96977 11.5063C6.82912 11.3657 6.7501 11.1749 6.7501 10.976C6.7501 10.7771 6.82912 10.5863 6.96977 10.4457C7.11042 10.305 7.30119 10.226 7.5001 10.226C7.69901 10.226 7.88978 10.305 8.03043 10.4457C8.17108 10.5863 8.2501 10.7771 8.2501 10.976Z" fill="#FDFDFE"/>
</svg>
