<svg width="15" height="16" viewBox="0 0 15 16" fill="none" xmlns="http://www.w3.org/2000/svg">
<path fill-rule="evenodd" clip-rule="evenodd" d="M7.49995 1.37695C5.74342 1.37695 4.05884 2.07473 2.81678 3.31678C1.57473 4.55884 0.876953 6.24342 0.876953 7.99995C0.876953 9.75648 1.57473 11.4411 2.81678 12.6831C4.05884 13.9252 5.74342 14.623 7.49995 14.623C9.25648 14.623 10.9411 13.9252 12.1831 12.6831C13.4252 11.4411 14.123 9.75648 14.123 7.99995C14.123 6.24342 13.4252 4.55884 12.1831 3.31678C10.9411 2.07473 9.25648 1.37695 7.49995 1.37695ZM1.82695 7.99995C1.82695 6.49538 2.42464 5.05243 3.48854 3.98854C4.55243 2.92464 5.99538 2.32695 7.49995 2.32695C9.00453 2.32695 10.4475 2.92464 11.5114 3.98854C12.5753 5.05243 13.173 6.49538 13.173 7.99995C13.173 9.50453 12.5753 10.9475 11.5114 12.0114C10.4475 13.0753 9.00453 13.673 7.49995 13.673C5.99538 13.673 4.55243 13.0753 3.48854 12.0114C2.42464 10.9475 1.82695 9.50453 1.82695 7.99995ZM8.24995 4.99995C8.24995 5.19887 8.17094 5.38963 8.03028 5.53028C7.88963 5.67094 7.69887 5.74995 7.49995 5.74995C7.30104 5.74995 7.11028 5.67094 6.96962 5.53028C6.82897 5.38963 6.74995 5.19887 6.74995 4.99995C6.74995 4.80104 6.82897 4.61028 6.96962 4.46962C7.11028 4.32897 7.30104 4.24995 7.49995 4.24995C7.69887 4.24995 7.88963 4.32897 8.03028 4.46962C8.17094 4.61028 8.24995 4.80104 8.24995 4.99995ZM5.99995 6.49995H7.49995C7.63256 6.49995 7.75974 6.55263 7.85351 6.6464C7.94727 6.74017 7.99995 6.86735 7.99995 6.99995V10.5H8.99995V11.5H5.99995V10.5H6.99995V7.49995H5.99995V6.49995Z" fill="#FDFDFE"/>
</svg>
