<svg width="15" height="16" viewBox="0 0 15 16" fill="none" xmlns="http://www.w3.org/2000/svg">
<path fill-rule="evenodd" clip-rule="evenodd" d="M3 2.5C2.73478 2.5 2.48043 2.60536 2.29289 2.79289C2.10536 2.98043 2 3.23479 2 3.5V12.5C2 12.7652 2.10536 13.0196 2.29289 13.2071C2.48043 13.3946 2.73478 13.5 3 13.5H12C12.2652 13.5 12.5196 13.3946 12.7071 13.2071C12.8946 13.0196 13 12.7652 13 12.5V9C13 8.86739 12.9473 8.74022 12.8536 8.64645C12.7598 8.55268 12.6326 8.5 12.5 8.5C12.3674 8.5 12.2402 8.55268 12.1464 8.64645C12.0527 8.74022 12 8.86739 12 9V12.5H3V3.5H6.5C6.63261 3.5 6.75979 3.44732 6.85355 3.35356C6.94732 3.25979 7 3.13261 7 3C7 2.86739 6.94732 2.74022 6.85355 2.64645C6.75979 2.55268 6.63261 2.5 6.5 2.5H3ZM12.854 2.646C12.947 2.73922 12.9994 2.86534 13 2.997V6C13 6.13261 12.9473 6.25979 12.8536 6.35355C12.7598 6.44732 12.6326 6.5 12.5 6.5C12.3674 6.5 12.2402 6.44732 12.1464 6.35355C12.0527 6.25979 12 6.13261 12 6V4.207L6.854 9.354C6.80751 9.40049 6.75232 9.43737 6.69158 9.46253C6.63084 9.48768 6.56574 9.50063 6.5 9.50063C6.43426 9.50063 6.36916 9.48768 6.30842 9.46253C6.24768 9.43737 6.19249 9.40049 6.146 9.354C6.09951 9.30751 6.06264 9.25232 6.03748 9.19159C6.01232 9.13085 5.99937 9.06575 5.99937 9C5.99937 8.93426 6.01232 8.86916 6.03748 8.80842C6.06264 8.74768 6.09951 8.69249 6.146 8.646L11.293 3.5H9.5C9.36739 3.5 9.24021 3.44732 9.14645 3.35356C9.05268 3.25979 9 3.13261 9 3C9 2.86739 9.05268 2.74022 9.14645 2.64645C9.24021 2.55268 9.36739 2.5 9.5 2.5H12.5C12.5657 2.49983 12.6308 2.51264 12.6916 2.53769C12.7523 2.56275 12.8075 2.59956 12.854 2.646Z" fill="black"/>
</svg>
