<svg width="15" height="16" viewBox="0 0 15 16" fill="none" xmlns="http://www.w3.org/2000/svg">
<path fill-rule="evenodd" clip-rule="evenodd" d="M11.854 1.6459C11.7603 1.55217 11.6331 1.49951 11.5005 1.49951C11.368 1.49951 11.2408 1.55217 11.147 1.6459L3.71405 9.07791C3.62402 9.16811 3.55206 9.27469 3.50205 9.39191L2.04005 12.8029C2.00046 12.8948 1.98937 12.9965 2.00821 13.0948C2.02704 13.1931 2.07495 13.2835 2.14571 13.3542C2.21648 13.425 2.30686 13.4729 2.40515 13.4917C2.50344 13.5106 2.60513 13.4995 2.69705 13.4599L6.10805 11.9969C6.22519 11.9472 6.33176 11.8756 6.42205 11.7859L13.854 4.3539C13.9006 4.30746 13.9376 4.25228 13.9628 4.19154C13.988 4.13079 14.0009 4.06567 14.0009 3.9999C14.0009 3.93414 13.988 3.86902 13.9628 3.80827C13.9376 3.74753 13.9006 3.69235 13.854 3.6459L11.854 1.6459ZM4.42205 9.7859L11.5 2.7059L12.793 3.9999L5.71505 11.0779L4.21905 11.7189L3.78105 11.2809L4.42105 9.7849L4.42205 9.7859Z" fill="black"/>
</svg>
