<svg width="15" height="16" viewBox="0 0 15 16" fill="none" xmlns="http://www.w3.org/2000/svg">
<path fill-rule="evenodd" clip-rule="evenodd" d="M10.3291 1.63604C10.2353 1.54215 10.1081 1.48935 9.97544 1.48926C9.84276 1.48916 9.71548 1.54178 9.62159 1.63554C9.5277 1.72929 9.4749 1.8565 9.47481 1.98918C9.47472 2.12186 9.52733 2.24915 9.62109 2.34304L10.2741 2.99604L5.42609 6.63304L4.31809 5.52504C4.22379 5.43396 4.09749 5.38356 3.96639 5.3847C3.83529 5.38584 3.70988 5.43842 3.61718 5.53113C3.52448 5.62383 3.47189 5.74924 3.47075 5.88034C3.46961 6.01143 3.52001 6.13774 3.61109 6.23204L5.02509 7.64604L6.08509 8.70704L2.81509 11.977C2.7686 12.0235 2.73172 12.0787 2.70657 12.1395C2.68141 12.2002 2.66846 12.2653 2.66846 12.331C2.66846 12.3968 2.68141 12.4619 2.70657 12.5226C2.73172 12.5834 2.7686 12.6385 2.81509 12.685C2.86158 12.7315 2.91677 12.7684 2.97751 12.7936C3.03824 12.8187 3.10334 12.8317 3.16909 12.8317C3.23483 12.8317 3.29993 12.8187 3.36067 12.7936C3.42141 12.7684 3.4766 12.7315 3.52309 12.685L6.79309 9.41504L7.85309 10.475L9.26809 11.889C9.31421 11.9368 9.36938 11.9749 9.43039 12.0011C9.49139 12.0273 9.557 12.0411 9.62339 12.0417C9.68978 12.0422 9.75562 12.0296 9.81707 12.0044C9.87851 11.9793 9.93434 11.9422 9.98129 11.8952C10.0282 11.8483 10.0654 11.7925 10.0905 11.731C10.1156 11.6696 10.1283 11.6037 10.1277 11.5373C10.1271 11.4709 10.1133 11.4053 10.0871 11.3443C10.0609 11.2833 10.0228 11.2282 9.97509 11.182L8.86709 10.074L12.5041 5.22604L13.1571 5.87904C13.2032 5.92679 13.2584 5.96488 13.3194 5.99109C13.3804 6.01729 13.446 6.03108 13.5124 6.03166C13.5788 6.03224 13.6446 6.01959 13.7061 5.99445C13.7675 5.96931 13.8233 5.93218 13.8703 5.88523C13.9172 5.83829 13.9544 5.78246 13.9795 5.72101C14.0046 5.65956 14.0173 5.59373 14.0167 5.52734C14.0161 5.46095 14.0023 5.39534 13.9761 5.33433C13.9499 5.27333 13.9118 5.21816 13.8641 5.17204L12.8041 4.11104L11.3891 2.69704L10.3291 1.63604ZM6.13909 7.34704L10.9891 3.71004L11.7891 4.51104L8.15309 9.36104L6.14009 7.34604L6.13909 7.34704Z" fill="#FDFDFE"/>
</svg>
