<svg width="15" height="16" viewBox="0 0 15 16" fill="none" xmlns="http://www.w3.org/2000/svg">
<path fill-rule="evenodd" clip-rule="evenodd" d="M7.49995 1.37695C5.74342 1.37695 4.05884 2.07473 2.81678 3.31678C1.57473 4.55884 0.876953 6.24342 0.876953 7.99995C0.876953 9.75648 1.57473 11.4411 2.81678 12.6831C4.05884 13.9252 5.74342 14.623 7.49995 14.623C9.25648 14.623 10.9411 13.9252 12.1831 12.6831C13.4252 11.4411 14.123 9.75648 14.123 7.99995C14.123 6.24342 13.4252 4.55884 12.1831 3.31678C10.9411 2.07473 9.25648 1.37695 7.49995 1.37695ZM1.82695 7.99995C1.82695 6.49538 2.42464 5.05243 3.48854 3.98854C4.55243 2.92464 5.99538 2.32695 7.49995 2.32695C9.00453 2.32695 10.4475 2.92464 11.5114 3.98854C12.5753 5.05243 13.173 6.49538 13.173 7.99995C13.173 9.50453 12.5753 10.9475 11.5114 12.0114C10.4475 13.0753 9.00453 13.673 7.49995 13.673C5.99538 13.673 4.55243 13.0753 3.48854 12.0114C2.42464 10.9475 1.82695 9.50453 1.82695 7.99995ZM7.99995 4.99995C7.99995 4.86735 7.94727 4.74017 7.85351 4.6464C7.75974 4.55263 7.63256 4.49995 7.49995 4.49995C7.36735 4.49995 7.24017 4.55263 7.1464 4.6464C7.05263 4.74017 6.99995 4.86735 6.99995 4.99995V7.99995C6.99984 8.06566 7.01267 8.13074 7.03772 8.19148C7.06277 8.25223 7.09955 8.30743 7.14595 8.35395L9.14595 10.354C9.23984 10.4478 9.36718 10.5006 9.49995 10.5006C9.63273 10.5006 9.76007 10.4478 9.85395 10.354C9.94784 10.2601 10.0006 10.1327 10.0006 9.99995C10.0006 9.86718 9.94784 9.73984 9.85395 9.64595L7.99995 7.79295V4.99995Z" fill="black"/>
</svg>
