<svg width="15" height="16" viewBox="0 0 15 16" fill="none" xmlns="http://www.w3.org/2000/svg">
<path fill-rule="evenodd" clip-rule="evenodd" d="M1.90308 7.79698C1.90308 10.841 4.11008 12.915 6.58908 13.344C6.65652 13.3557 6.72099 13.3805 6.77882 13.4171C6.83665 13.4537 6.8867 13.5014 6.92612 13.5573C6.96553 13.6133 6.99355 13.6764 7.00855 13.7432C7.02356 13.81 7.02527 13.879 7.01358 13.9465C7.0019 14.0139 6.97704 14.0784 6.94044 14.1362C6.90383 14.194 6.8562 14.2441 6.80025 14.2835C6.7443 14.3229 6.68114 14.3509 6.61437 14.366C6.54759 14.381 6.47852 14.3827 6.41108 14.371C3.50008 13.867 0.861084 11.413 0.861084 7.79698C0.861084 6.25998 1.56008 5.05198 2.37608 4.13398C2.96108 3.47598 3.63008 2.94098 4.16808 2.53198H2.53208C2.39948 2.53198 2.2723 2.4793 2.17853 2.38554C2.08476 2.29177 2.03208 2.16459 2.03208 2.03198C2.03208 1.89937 2.08476 1.7722 2.17853 1.67843C2.2723 1.58466 2.39948 1.53198 2.53208 1.53198H5.53208C5.66469 1.53198 5.79187 1.58466 5.88564 1.67843C5.97941 1.7722 6.03208 1.89937 6.03208 2.03198V5.03198C6.03208 5.16459 5.97941 5.29177 5.88564 5.38554C5.79187 5.4793 5.66469 5.53198 5.53208 5.53198C5.39948 5.53198 5.2723 5.4793 5.17853 5.38554C5.08476 5.29177 5.03208 5.16459 5.03208 5.03198V3.18598L5.03108 3.18798C4.45908 3.61798 3.76108 4.14498 3.15608 4.82598C2.44108 5.62998 1.90308 6.60298 1.90308 7.79698ZM13.0111 8.20298C13.0111 5.19098 10.8511 3.12998 8.40408 2.66998C8.33588 2.65841 8.27067 2.63337 8.21225 2.59633C8.15382 2.55929 8.10336 2.51098 8.06381 2.45423C8.02426 2.39748 7.9964 2.33341 7.98187 2.26578C7.96733 2.19815 7.96641 2.1283 7.97916 2.06031C7.99191 1.99232 8.01807 1.92755 8.05612 1.86977C8.09416 1.812 8.14334 1.76238 8.20076 1.72381C8.25819 1.68525 8.32272 1.6585 8.3906 1.64514C8.45847 1.63177 8.52832 1.63206 8.59608 1.64598C11.4701 2.18598 14.0531 4.62598 14.0531 8.20298C14.0531 9.73998 13.3541 10.947 12.5381 11.866C11.9531 12.524 11.2841 13.059 10.7461 13.468H12.3821C12.5147 13.468 12.6419 13.5207 12.7356 13.6144C12.8294 13.7082 12.8821 13.8354 12.8821 13.968C12.8821 14.1006 12.8294 14.2278 12.7356 14.3215C12.6419 14.4153 12.5147 14.468 12.3821 14.468H9.38208C9.24948 14.468 9.1223 14.4153 9.02853 14.3215C8.93476 14.2278 8.88208 14.1006 8.88208 13.968V10.968C8.88208 10.8354 8.93476 10.7082 9.02853 10.6144C9.1223 10.5207 9.24948 10.468 9.38208 10.468C9.51469 10.468 9.64187 10.5207 9.73564 10.6144C9.82941 10.7082 9.88208 10.8354 9.88208 10.968V12.813H9.88408C10.4551 12.381 11.1541 11.855 11.7581 11.173C12.4731 10.37 13.0111 9.39798 13.0111 8.20298Z" fill="black"/>
</svg>
